<?xml version="1.0" encoding="utf-8"?>
<!-- Generator: Adobe Illustrator 23.0.3, SVG Export Plug-In . SVG Version: 6.00 Build 0)  -->
<svg version="1.1" id="Layer_1" xmlns="http://www.w3.org/2000/svg" xmlns:xlink="http://www.w3.org/1999/xlink" x="0px" y="0px"
	 viewBox="0 0 52 52" style="enable-background:new 0 0 52 52;" xml:space="preserve">
<style type="text/css">
	.st0{fill:#7D7D7D;stroke:#000000;stroke-width:1.5854;stroke-miterlimit:10;}
	.st1{fill:#3399FF;}
	.st2{display:none;fill:#999966;}
	.st3{fill:#FF0000;}
</style>
<g>
	<g>
		<ellipse transform="matrix(0.2378 -0.9713 0.9713 0.2378 -5.4361 45.0729)" class="st0" cx="26" cy="26" rx="25" ry="25"/>
		<g>
			<path class="st1" d="M26,46.13C14.9,46.13,5.87,37.1,5.87,26C5.87,14.9,14.9,5.87,26,5.87c11.1,0,20.13,9.03,20.13,20.13
				C46.13,37.1,37.1,46.13,26,46.13z"/>
			<path d="M26,6.35c10.85,0,19.65,8.8,19.65,19.65c0,10.85-8.8,19.65-19.65,19.65c-10.85,0-19.65-8.8-19.65-19.65
				C6.35,15.15,15.15,6.35,26,6.35 M26,5.4C14.64,5.4,5.4,14.64,5.4,26c0,11.36,9.24,20.6,20.6,20.6c11.36,0,20.6-9.24,20.6-20.6
				C46.6,14.64,37.36,5.4,26,5.4L26,5.4z"/>
		</g>
		<ellipse class="st2" cx="26" cy="26.27" rx="25" ry="15.05"/>
	</g>
	<g>
		<g>
			<path d="M29.28,19.07l-2.61,17.35l-7.32-1.96c-0.67-2.95-1.26-6.27-1.78-9.94c-0.23,1.45-0.78,4.46-1.64,9.03l-7.28-1.95
				L4.89,4.87l5.7,1.53l1.75,14.43l0.6,6.25c0.22-3.09,0.76-7.08,1.62-11.95l6.09,1.63c0.08,0.55,0.29,2.59,0.64,6.12l0.65,7.04
				c0.33-4.28,0.88-8.41,1.64-12.38L29.28,19.07z"/>
			<path d="M30.6,19.57l6.18,1.58c1.6,0.43,2.96,0.86,3.82,1.29c0.86,0.43,1.57,0.89,2.01,1.39c0.43,0.49,0.66,1.03,0.82,1.61
				c0.15,0.58,0.17,1.43,0.17,2.56v1.57c0,1.15-0.05,1.95-0.35,2.4c-0.3,0.45-0.8,0.71-1.59,0.78c-0.79,0.07-2.02-0.07-3.3-0.41
				l-1.76-0.42v15.44l-6-1.57V19.57z M36.6,24.23v4.59c1,0.05,0.52,0.09,0.64,0.13c0.54,0.14,1.37,0.14,1.58-0.02
				c0.21-0.16,0.78-0.57,0.78-1.24v-1.48c0-0.62-0.69-1.05-0.93-1.3C38.43,24.66,37.6,24.44,36.6,24.23z"/>
		</g>
		<g>
			<path d="M29.28,19.07l-2.61,17.35l-7.32-1.96c-0.67-2.95-1.26-6.27-1.78-9.94c-0.23,1.45-0.78,4.46-1.64,9.03l-7.28-1.95
				L4.89,4.87l5.7,1.53l1.75,14.43l0.6,6.25c0.22-3.09,0.76-7.08,1.62-11.95l6.09,1.63c0.08,0.55,0.29,2.59,0.64,6.12l0.65,7.04
				c0.33-4.28,0.88-8.41,1.64-12.38L29.28,19.07z"/>
			<path d="M30.6,19.57l6.18,1.58c1.6,0.43,2.96,0.86,3.82,1.29c0.86,0.43,1.57,0.89,2.01,1.39c0.43,0.49,0.66,1.03,0.82,1.61
				c0.15,0.58,0.17,1.43,0.17,2.56v1.57c0,1.15-0.05,1.95-0.35,2.4c-0.3,0.45-0.8,0.71-1.59,0.78c-0.79,0.07-2.02-0.07-3.3-0.41
				l-1.76-0.42v15.44l-6-1.57V19.57z M36.6,24.23v4.59c1,0.05,0.52,0.09,0.64,0.13c0.54,0.14,1.37,0.14,1.58-0.02
				c0.21-0.16,0.78-0.57,0.78-1.24v-1.48c0-0.62-0.69-1.05-0.93-1.3C38.43,24.66,37.6,24.44,36.6,24.23z"/>
		</g>
		<g>
			<path class="st3" d="M4.89,4.87l5.7,1.53l1.75,14.43l0.6,6.25c0.22-3.09,0.76-7.08,1.62-11.95l6.09,1.63
				c0.08,0.55,0.29,2.59,0.64,6.12l0.65,7.04c0.33-4.28,0.88-8.41,1.64-12.38l5.7,1.53l-2.61,17.35l-7.32-1.96
				c-0.67-2.95-1.26-6.27-1.78-9.94c-0.23,1.45-0.78,4.46-1.64,9.03l-7.28-1.95L4.89,4.87 M3.37,3.15l0.27,1.9L7.4,31.77l0.12,0.83
				l0.81,0.22l7.28,1.95l1.32,0.35l0.25-1.35c0.12-0.64,0.23-1.24,0.34-1.82c0.19,0.96,0.39,1.89,0.59,2.78l0.17,0.75l0.74,0.2
				l7.32,1.96l1.37,0.37l0.21-1.4l2.61-17.35l0.17-1.12l-1.09-0.29l-5.7-1.53l-1.32-0.35l-0.26,1.34c-0.07,0.38-0.14,0.76-0.21,1.14
				c-0.1-0.97-0.17-1.59-0.21-1.87l-0.12-0.82l-0.8-0.22L14.9,13.9l-1.34-0.36l-0.24,1.36c-0.08,0.48-0.17,0.94-0.24,1.41
				L11.85,6.25l-0.1-0.85l-0.83-0.22l-5.7-1.53L3.37,3.15L3.37,3.15z"/>
			<path class="st3" d="M30.6,19.57l6.18,1.58c1.6,0.43,2.96,0.86,3.82,1.29c0.86,0.43,1.57,0.89,2.01,1.39
				c0.43,0.49,0.66,1.03,0.82,1.61c0.15,0.58,0.17,1.43,0.17,2.56v1.57c0,1.15-0.05,1.95-0.35,2.4c-0.3,0.45-0.8,0.71-1.59,0.78
				c-0.13,0.01-0.28,0.02-0.44,0.02c-0.77,0-1.8-0.14-2.86-0.43l-1.76-0.42v15.44l-6-1.57V19.57 M38.12,29.06
				c0.32,0,0.59-0.04,0.7-0.12c0.21-0.16,0.78-0.57,0.78-1.24v-1.48c0-0.62-0.69-1.05-0.93-1.3c-0.24-0.25-1.07-0.48-2.07-0.68v4.59
				c1,0.05,0.52,0.09,0.64,0.13C37.5,29.02,37.83,29.06,38.12,29.06 M29.33,17.94v1.63v26.22v0.98l0.95,0.25l6,1.57l1.59,0.42v-1.64
				V33.53l0.2,0.05c1.1,0.3,2.24,0.46,3.16,0.46c0.2,0,0.38-0.01,0.55-0.02c1.16-0.1,2.01-0.55,2.54-1.34
				c0.47-0.71,0.56-1.64,0.56-3.1v-1.57c0-1.18-0.02-2.14-0.21-2.89c-0.23-0.86-0.57-1.53-1.09-2.12c-0.51-0.58-1.29-1.14-2.39-1.69
				c-0.85-0.43-2.14-0.86-4.06-1.38l-6.2-1.59L29.33,17.94L29.33,17.94z M37.87,27.78V25.9c0.05,0.05,0.11,0.1,0.17,0.15
				c0.08,0.07,0.22,0.19,0.29,0.28v1.37c-0.01,0.01-0.04,0.04-0.1,0.09c-0.03,0-0.07,0-0.11,0C38.04,27.79,37.95,27.78,37.87,27.78
				L37.87,27.78z"/>
		</g>
	</g>
</g>
</svg>
